<svg xmlns="http://www.w3.org/2000/svg" viewBox="0 0 300 300" role="img" aria-label="Purple WWW network sphere">
  <defs>
    <radialGradient id="orbGlow" cx="49%" cy="45%" r="54%">
      <stop offset="0%" stop-color="#c9adff" stop-opacity=".24"/>
      <stop offset="68%" stop-color="#9f76ff" stop-opacity=".14"/>
      <stop offset="100%" stop-color="#9f76ff" stop-opacity="0"/>
    </radialGradient>
    <filter id="softGlow" x="-30%" y="-30%" width="160%" height="160%">
      <feGaussianBlur stdDeviation="3.2" result="blur"/>
      <feMerge>
        <feMergeNode in="blur"/>
        <feMergeNode in="SourceGraphic"/>
      </feMerge>
    </filter>
  </defs>
  <circle cx="150" cy="145" r="118" fill="url(#orbGlow)"/>
  <g fill="none" stroke="#a78bfa" stroke-linecap="round" filter="url(#softGlow)">
    <ellipse cx="150" cy="145" rx="112" ry="88" stroke-width="1.8" opacity=".82"/>
    <ellipse cx="150" cy="145" rx="88" ry="112" stroke-width="1.45" opacity=".62" transform="rotate(19 150 145)"/>
    <ellipse cx="150" cy="145" rx="104" ry="66" stroke-width="1.25" opacity=".54" transform="rotate(-27 150 145)"/>
    <ellipse cx="150" cy="145" rx="58" ry="112" stroke-width="1.1" opacity=".42" transform="rotate(8 150 145)"/>
    <path d="M52 96c55-20 112-21 198-1M47 156c60 18 137 20 208-2M74 219c50-18 105-22 154-5" stroke-width="1.15" opacity=".44"/>
    <path d="M82 61c32 42 42 103 26 177M209 55c-37 47-46 112-25 184" stroke-width="1.15" opacity=".42"/>
    <path d="M65 197 111 80 201 74 238 163 185 234 94 220Z" stroke-width="1.1" opacity=".46"/>
    <path d="M61 118 118 203 205 95 241 183" stroke-width="1" opacity=".34"/>
  </g>
  <g fill="#d8c8ff" filter="url(#softGlow)">
    <circle cx="55" cy="96" r="3.2"/><circle cx="74" cy="219" r="2.7"/>
    <circle cx="94" cy="220" r="3"/><circle cx="111" cy="80" r="2.8"/>
    <circle cx="118" cy="203" r="2.5"/><circle cx="150" cy="42" r="2.7"/>
    <circle cx="185" cy="234" r="2.9"/><circle cx="201" cy="74" r="3"/>
    <circle cx="205" cy="95" r="2.5"/><circle cx="238" cy="163" r="3"/>
    <circle cx="241" cy="183" r="2.7"/><circle cx="250" cy="96" r="2.9"/>
    <circle cx="48" cy="156" r="2.5"/><circle cx="255" cy="154" r="2.5"/>
  </g>
  <text x="150" y="159" text-anchor="middle" font-family="Geist, Inter, Arial, sans-serif" font-size="58" font-weight="800" fill="#9f7aea" opacity=".88" letter-spacing="1">WWW</text>
</svg>
